<?xml version="1.0" standalone="no"?>
<!DOCTYPE svg PUBLIC "-//W3C//DTD SVG 20010904//EN"
 "http://www.w3.org/TR/2001/REC-SVG-20010904/DTD/svg10.dtd">
<svg version="1.0" xmlns="http://www.w3.org/2000/svg"
 width="35.000000pt" height="35.000000pt" viewBox="0 0 35.000000 35.000000"
 preserveAspectRatio="xMidYMid meet">
<metadata>
Created by potrace 1.10, written by Peter Selinger 2001-2011
</metadata>
<g transform="translate(0.000000,35.000000) scale(0.100000,-0.100000)"
fill="#000000" stroke="none">
<path d="M143 303 c-7 -2 -13 -11 -13 -20 0 -10 -9 -14 -27 -13 -41 3 -50 1
-35 -9 8 -5 17 -46 23 -107 6 -55 15 -102 22 -106 20 -13 114 -9 125 5 6 7 14
57 18 110 4 53 11 97 15 97 5 0 9 4 9 10 0 5 -13 7 -29 4 -23 -5 -32 -2 -40
15 -11 20 -40 26 -68 14z m57 -23 c0 -5 -11 -10 -25 -10 -14 0 -25 5 -25 10 0
6 11 10 25 10 14 0 25 -4 25 -10z m38 -102 c-3 -46 -7 -91 -7 -100 -1 -15 -11
-18 -56 -18 -36 0 -57 4 -59 13 -3 6 -7 51 -10 100 l-5 87 72 0 72 0 -7 -82z"/>
<path d="M130 160 c0 -40 4 -70 10 -70 6 0 10 30 10 70 0 40 -4 70 -10 70 -6
0 -10 -30 -10 -70z"/>
<path d="M169 225 c-3 -30 0 -127 5 -132 3 -4 6 26 6 65 0 40 -2 72 -5 72 -3
0 -5 -2 -6 -5z"/>
<path d="M200 158 c0 -39 3 -69 6 -65 11 11 15 137 4 137 -6 0 -10 -29 -10
-72z"/>
</g>
</svg>
